<mxfile host="app.diagrams.net" modified="2023-09-17T06:34:50.564Z" agent="Mozilla/5.0 (Windows NT 10.0; Win64; x64) AppleWebKit/537.36 (KHTML, like Gecko) Chrome/117.0.0.0 Safari/537.36 Edg/117.0.2045.31" etag="Ud21xaFzcqJ-L5j0m2LJ" version="21.7.5" type="github">
  <diagram name="第 1 页" id="dkUAmcEz4Ft4TNXjTfV3">
    <mxGraphModel dx="809" dy="509" grid="1" gridSize="10" guides="1" tooltips="1" connect="1" arrows="1" fold="1" page="1" pageScale="1" pageWidth="827" pageHeight="1169" math="0" shadow="0">
      <root>
        <mxCell id="0" />
        <mxCell id="1" parent="0" />
        <mxCell id="A5HtiUHyVA4H0x5wCQ9Z-1" value="a" style="rounded=0;whiteSpace=wrap;html=1;" vertex="1" parent="1">
          <mxGeometry x="200" y="430" width="40" height="40" as="geometry" />
        </mxCell>
        <mxCell id="A5HtiUHyVA4H0x5wCQ9Z-2" value="b" style="rounded=0;whiteSpace=wrap;html=1;" vertex="1" parent="1">
          <mxGeometry x="240" y="430" width="40" height="40" as="geometry" />
        </mxCell>
        <mxCell id="A5HtiUHyVA4H0x5wCQ9Z-3" value="c" style="rounded=0;whiteSpace=wrap;html=1;" vertex="1" parent="1">
          <mxGeometry x="280" y="430" width="40" height="40" as="geometry" />
        </mxCell>
        <mxCell id="A5HtiUHyVA4H0x5wCQ9Z-4" value="c" style="rounded=0;whiteSpace=wrap;html=1;" vertex="1" parent="1">
          <mxGeometry x="320" y="430" width="40" height="40" as="geometry" />
        </mxCell>
        <mxCell id="A5HtiUHyVA4H0x5wCQ9Z-5" value="b" style="rounded=0;whiteSpace=wrap;html=1;" vertex="1" parent="1">
          <mxGeometry x="360" y="430" width="40" height="40" as="geometry" />
        </mxCell>
        <mxCell id="A5HtiUHyVA4H0x5wCQ9Z-6" value="a" style="rounded=0;whiteSpace=wrap;html=1;" vertex="1" parent="1">
          <mxGeometry x="400" y="430" width="40" height="40" as="geometry" />
        </mxCell>
        <mxCell id="A5HtiUHyVA4H0x5wCQ9Z-35" value="" style="edgeStyle=orthogonalEdgeStyle;rounded=0;orthogonalLoop=1;jettySize=auto;html=1;" edge="1" parent="1" source="A5HtiUHyVA4H0x5wCQ9Z-7" target="A5HtiUHyVA4H0x5wCQ9Z-34">
          <mxGeometry relative="1" as="geometry" />
        </mxCell>
        <mxCell id="A5HtiUHyVA4H0x5wCQ9Z-7" value="0" style="rounded=0;whiteSpace=wrap;html=1;" vertex="1" parent="1">
          <mxGeometry x="200" y="400" width="40" height="30" as="geometry" />
        </mxCell>
        <mxCell id="A5HtiUHyVA4H0x5wCQ9Z-38" style="edgeStyle=orthogonalEdgeStyle;rounded=0;orthogonalLoop=1;jettySize=auto;html=1;exitX=0.5;exitY=0;exitDx=0;exitDy=0;entryX=0.5;entryY=1;entryDx=0;entryDy=0;" edge="1" parent="1" source="A5HtiUHyVA4H0x5wCQ9Z-8" target="A5HtiUHyVA4H0x5wCQ9Z-36">
          <mxGeometry relative="1" as="geometry" />
        </mxCell>
        <mxCell id="A5HtiUHyVA4H0x5wCQ9Z-8" value="1" style="rounded=0;whiteSpace=wrap;html=1;" vertex="1" parent="1">
          <mxGeometry x="240" y="400" width="40" height="30" as="geometry" />
        </mxCell>
        <mxCell id="A5HtiUHyVA4H0x5wCQ9Z-40" style="edgeStyle=orthogonalEdgeStyle;rounded=0;orthogonalLoop=1;jettySize=auto;html=1;entryX=0.5;entryY=1;entryDx=0;entryDy=0;" edge="1" parent="1" source="A5HtiUHyVA4H0x5wCQ9Z-9" target="A5HtiUHyVA4H0x5wCQ9Z-37">
          <mxGeometry relative="1" as="geometry" />
        </mxCell>
        <mxCell id="A5HtiUHyVA4H0x5wCQ9Z-9" value="2" style="rounded=0;whiteSpace=wrap;html=1;" vertex="1" parent="1">
          <mxGeometry x="280" y="400" width="40" height="30" as="geometry" />
        </mxCell>
        <mxCell id="A5HtiUHyVA4H0x5wCQ9Z-46" style="edgeStyle=orthogonalEdgeStyle;rounded=0;orthogonalLoop=1;jettySize=auto;html=1;entryX=0.5;entryY=1;entryDx=0;entryDy=0;" edge="1" parent="1" source="A5HtiUHyVA4H0x5wCQ9Z-10" target="A5HtiUHyVA4H0x5wCQ9Z-41">
          <mxGeometry relative="1" as="geometry" />
        </mxCell>
        <mxCell id="A5HtiUHyVA4H0x5wCQ9Z-10" value="3" style="rounded=0;whiteSpace=wrap;html=1;" vertex="1" parent="1">
          <mxGeometry x="320" y="400" width="40" height="30" as="geometry" />
        </mxCell>
        <mxCell id="A5HtiUHyVA4H0x5wCQ9Z-47" style="edgeStyle=orthogonalEdgeStyle;rounded=0;orthogonalLoop=1;jettySize=auto;html=1;entryX=0.5;entryY=1;entryDx=0;entryDy=0;" edge="1" parent="1" source="A5HtiUHyVA4H0x5wCQ9Z-11" target="A5HtiUHyVA4H0x5wCQ9Z-42">
          <mxGeometry relative="1" as="geometry" />
        </mxCell>
        <mxCell id="A5HtiUHyVA4H0x5wCQ9Z-11" value="4" style="rounded=0;whiteSpace=wrap;html=1;" vertex="1" parent="1">
          <mxGeometry x="360" y="400" width="40" height="30" as="geometry" />
        </mxCell>
        <mxCell id="A5HtiUHyVA4H0x5wCQ9Z-48" style="edgeStyle=orthogonalEdgeStyle;rounded=0;orthogonalLoop=1;jettySize=auto;html=1;entryX=0.5;entryY=1;entryDx=0;entryDy=0;" edge="1" parent="1" source="A5HtiUHyVA4H0x5wCQ9Z-12" target="A5HtiUHyVA4H0x5wCQ9Z-43">
          <mxGeometry relative="1" as="geometry" />
        </mxCell>
        <mxCell id="A5HtiUHyVA4H0x5wCQ9Z-12" value="5" style="rounded=0;whiteSpace=wrap;html=1;" vertex="1" parent="1">
          <mxGeometry x="400" y="400" width="40" height="30" as="geometry" />
        </mxCell>
        <mxCell id="A5HtiUHyVA4H0x5wCQ9Z-13" value="a" style="rounded=0;whiteSpace=wrap;html=1;" vertex="1" parent="1">
          <mxGeometry x="200" y="240" width="40" height="40" as="geometry" />
        </mxCell>
        <mxCell id="A5HtiUHyVA4H0x5wCQ9Z-14" value="b" style="rounded=0;whiteSpace=wrap;html=1;" vertex="1" parent="1">
          <mxGeometry x="240" y="240" width="40" height="40" as="geometry" />
        </mxCell>
        <mxCell id="A5HtiUHyVA4H0x5wCQ9Z-15" value="c" style="rounded=0;whiteSpace=wrap;html=1;" vertex="1" parent="1">
          <mxGeometry x="280" y="240" width="40" height="40" as="geometry" />
        </mxCell>
        <mxCell id="A5HtiUHyVA4H0x5wCQ9Z-16" value="b" style="rounded=0;whiteSpace=wrap;html=1;" vertex="1" parent="1">
          <mxGeometry x="320" y="240" width="40" height="40" as="geometry" />
        </mxCell>
        <mxCell id="A5HtiUHyVA4H0x5wCQ9Z-17" value="a" style="rounded=0;whiteSpace=wrap;html=1;" vertex="1" parent="1">
          <mxGeometry x="360" y="240" width="40" height="40" as="geometry" />
        </mxCell>
        <mxCell id="A5HtiUHyVA4H0x5wCQ9Z-19" value="0" style="rounded=0;whiteSpace=wrap;html=1;" vertex="1" parent="1">
          <mxGeometry x="200" y="210" width="40" height="30" as="geometry" />
        </mxCell>
        <mxCell id="A5HtiUHyVA4H0x5wCQ9Z-20" value="1" style="rounded=0;whiteSpace=wrap;html=1;" vertex="1" parent="1">
          <mxGeometry x="240" y="210" width="40" height="30" as="geometry" />
        </mxCell>
        <mxCell id="A5HtiUHyVA4H0x5wCQ9Z-21" value="2" style="rounded=0;whiteSpace=wrap;html=1;" vertex="1" parent="1">
          <mxGeometry x="280" y="210" width="40" height="30" as="geometry" />
        </mxCell>
        <mxCell id="A5HtiUHyVA4H0x5wCQ9Z-22" value="3" style="rounded=0;whiteSpace=wrap;html=1;" vertex="1" parent="1">
          <mxGeometry x="320" y="210" width="40" height="30" as="geometry" />
        </mxCell>
        <mxCell id="A5HtiUHyVA4H0x5wCQ9Z-23" value="4" style="rounded=0;whiteSpace=wrap;html=1;" vertex="1" parent="1">
          <mxGeometry x="360" y="210" width="40" height="30" as="geometry" />
        </mxCell>
        <mxCell id="A5HtiUHyVA4H0x5wCQ9Z-25" value="&lt;div style=&quot;text-align: left;&quot;&gt;&lt;span style=&quot;background-color: initial;&quot;&gt;n = 5&lt;/span&gt;&lt;/div&gt;&lt;div style=&quot;text-align: left;&quot;&gt;&lt;span style=&quot;background-color: initial;&quot;&gt;n/2 = 2&lt;/span&gt;&lt;/div&gt;&lt;div style=&quot;text-align: left;&quot;&gt;&lt;span style=&quot;background-color: initial;&quot;&gt;i &amp;lt; 2&lt;/span&gt;&lt;/div&gt;" style="text;html=1;strokeColor=none;fillColor=none;align=center;verticalAlign=middle;whiteSpace=wrap;rounded=0;" vertex="1" parent="1">
          <mxGeometry x="280" y="110" width="60" height="60" as="geometry" />
        </mxCell>
        <mxCell id="A5HtiUHyVA4H0x5wCQ9Z-26" value="" style="endArrow=none;html=1;rounded=0;entryX=0;entryY=0;entryDx=0;entryDy=0;exitX=0;exitY=0.25;exitDx=0;exitDy=0;" edge="1" parent="1" source="A5HtiUHyVA4H0x5wCQ9Z-25" target="A5HtiUHyVA4H0x5wCQ9Z-21">
          <mxGeometry width="50" height="50" relative="1" as="geometry">
            <mxPoint x="320" y="230" as="sourcePoint" />
            <mxPoint x="370" y="180" as="targetPoint" />
          </mxGeometry>
        </mxCell>
        <mxCell id="A5HtiUHyVA4H0x5wCQ9Z-28" value="&lt;div style=&quot;text-align: left;&quot;&gt;&lt;span style=&quot;background-color: initial;&quot;&gt;n = 6&lt;/span&gt;&lt;/div&gt;&lt;div style=&quot;text-align: left;&quot;&gt;&lt;span style=&quot;background-color: initial;&quot;&gt;n/2 = 3&lt;/span&gt;&lt;/div&gt;&lt;div style=&quot;text-align: left;&quot;&gt;&lt;span style=&quot;background-color: initial;&quot;&gt;i &amp;lt; 3&lt;/span&gt;&lt;/div&gt;" style="text;html=1;strokeColor=none;fillColor=none;align=center;verticalAlign=middle;whiteSpace=wrap;rounded=0;" vertex="1" parent="1">
          <mxGeometry x="320" y="300" width="60" height="60" as="geometry" />
        </mxCell>
        <mxCell id="A5HtiUHyVA4H0x5wCQ9Z-29" value="" style="endArrow=none;html=1;rounded=0;entryX=0;entryY=0;entryDx=0;entryDy=0;exitX=0;exitY=0.25;exitDx=0;exitDy=0;fillColor=#f8cecc;strokeColor=#b85450;" edge="1" parent="1" source="A5HtiUHyVA4H0x5wCQ9Z-28" target="A5HtiUHyVA4H0x5wCQ9Z-10">
          <mxGeometry width="50" height="50" relative="1" as="geometry">
            <mxPoint x="319.43" y="355" as="sourcePoint" />
            <mxPoint x="319.43" y="400" as="targetPoint" />
            <Array as="points">
              <mxPoint x="320" y="410" />
            </Array>
          </mxGeometry>
        </mxCell>
        <mxCell id="A5HtiUHyVA4H0x5wCQ9Z-34" value="i = 0" style="whiteSpace=wrap;html=1;rounded=0;" vertex="1" parent="1">
          <mxGeometry x="200" y="360" width="40" height="20" as="geometry" />
        </mxCell>
        <mxCell id="A5HtiUHyVA4H0x5wCQ9Z-36" value="i = 2" style="whiteSpace=wrap;html=1;rounded=0;" vertex="1" parent="1">
          <mxGeometry x="240" y="360" width="40" height="20" as="geometry" />
        </mxCell>
        <mxCell id="A5HtiUHyVA4H0x5wCQ9Z-37" value="i = 3" style="whiteSpace=wrap;html=1;rounded=0;" vertex="1" parent="1">
          <mxGeometry x="280" y="360" width="40" height="20" as="geometry" />
        </mxCell>
        <mxCell id="A5HtiUHyVA4H0x5wCQ9Z-41" value="i = 2" style="whiteSpace=wrap;html=1;rounded=0;" vertex="1" parent="1">
          <mxGeometry x="320" y="360" width="40" height="20" as="geometry" />
        </mxCell>
        <mxCell id="A5HtiUHyVA4H0x5wCQ9Z-42" value="i = 1" style="whiteSpace=wrap;html=1;rounded=0;" vertex="1" parent="1">
          <mxGeometry x="360" y="360" width="40" height="20" as="geometry" />
        </mxCell>
        <mxCell id="A5HtiUHyVA4H0x5wCQ9Z-43" value="i = 0" style="whiteSpace=wrap;html=1;rounded=0;" vertex="1" parent="1">
          <mxGeometry x="400" y="360" width="40" height="20" as="geometry" />
        </mxCell>
        <mxCell id="A5HtiUHyVA4H0x5wCQ9Z-49" value="" style="edgeStyle=orthogonalEdgeStyle;rounded=0;orthogonalLoop=1;jettySize=auto;html=1;" edge="1" parent="1" target="A5HtiUHyVA4H0x5wCQ9Z-55">
          <mxGeometry relative="1" as="geometry">
            <mxPoint x="220" y="210" as="sourcePoint" />
          </mxGeometry>
        </mxCell>
        <mxCell id="A5HtiUHyVA4H0x5wCQ9Z-50" style="edgeStyle=orthogonalEdgeStyle;rounded=0;orthogonalLoop=1;jettySize=auto;html=1;exitX=0.5;exitY=0;exitDx=0;exitDy=0;entryX=0.5;entryY=1;entryDx=0;entryDy=0;" edge="1" parent="1" target="A5HtiUHyVA4H0x5wCQ9Z-56">
          <mxGeometry relative="1" as="geometry">
            <mxPoint x="260" y="210" as="sourcePoint" />
          </mxGeometry>
        </mxCell>
        <mxCell id="A5HtiUHyVA4H0x5wCQ9Z-51" style="edgeStyle=orthogonalEdgeStyle;rounded=0;orthogonalLoop=1;jettySize=auto;html=1;entryX=0.5;entryY=1;entryDx=0;entryDy=0;" edge="1" parent="1" target="A5HtiUHyVA4H0x5wCQ9Z-57">
          <mxGeometry relative="1" as="geometry">
            <mxPoint x="300" y="210" as="sourcePoint" />
          </mxGeometry>
        </mxCell>
        <mxCell id="A5HtiUHyVA4H0x5wCQ9Z-52" style="edgeStyle=orthogonalEdgeStyle;rounded=0;orthogonalLoop=1;jettySize=auto;html=1;entryX=0.5;entryY=1;entryDx=0;entryDy=0;" edge="1" parent="1" target="A5HtiUHyVA4H0x5wCQ9Z-58">
          <mxGeometry relative="1" as="geometry">
            <mxPoint x="340" y="210" as="sourcePoint" />
          </mxGeometry>
        </mxCell>
        <mxCell id="A5HtiUHyVA4H0x5wCQ9Z-53" style="edgeStyle=orthogonalEdgeStyle;rounded=0;orthogonalLoop=1;jettySize=auto;html=1;entryX=0.5;entryY=1;entryDx=0;entryDy=0;" edge="1" parent="1" target="A5HtiUHyVA4H0x5wCQ9Z-59">
          <mxGeometry relative="1" as="geometry">
            <mxPoint x="380" y="210" as="sourcePoint" />
          </mxGeometry>
        </mxCell>
        <mxCell id="A5HtiUHyVA4H0x5wCQ9Z-55" value="i = 0" style="whiteSpace=wrap;html=1;rounded=0;" vertex="1" parent="1">
          <mxGeometry x="200" y="170" width="40" height="20" as="geometry" />
        </mxCell>
        <mxCell id="A5HtiUHyVA4H0x5wCQ9Z-56" value="i = 1" style="whiteSpace=wrap;html=1;rounded=0;" vertex="1" parent="1">
          <mxGeometry x="240" y="170" width="40" height="20" as="geometry" />
        </mxCell>
        <mxCell id="A5HtiUHyVA4H0x5wCQ9Z-57" value="i = 2" style="whiteSpace=wrap;html=1;rounded=0;fillColor=#f8cecc;strokeColor=#b85450;" vertex="1" parent="1">
          <mxGeometry x="280" y="170" width="40" height="20" as="geometry" />
        </mxCell>
        <mxCell id="A5HtiUHyVA4H0x5wCQ9Z-58" value="i = 1" style="whiteSpace=wrap;html=1;rounded=0;" vertex="1" parent="1">
          <mxGeometry x="320" y="170" width="40" height="20" as="geometry" />
        </mxCell>
        <mxCell id="A5HtiUHyVA4H0x5wCQ9Z-59" value="i = 0" style="whiteSpace=wrap;html=1;rounded=0;" vertex="1" parent="1">
          <mxGeometry x="360" y="170" width="40" height="20" as="geometry" />
        </mxCell>
      </root>
    </mxGraphModel>
  </diagram>
</mxfile>
